<?xml version="1.0" encoding="iso-8859-1"?>
<!-- Generator: Adobe Illustrator 16.0.0, SVG Export Plug-In . SVG Version: 6.00 Build 0)  -->
<!DOCTYPE svg PUBLIC "-//W3C//DTD SVG 1.1//EN" "http://www.w3.org/Graphics/SVG/1.1/DTD/svg11.dtd">
<svg version="1.1" id="Capa_1" xmlns="http://www.w3.org/2000/svg" xmlns:xlink="http://www.w3.org/1999/xlink" x="0px" y="0px"
	 width="451.838px" height="451.838px" viewBox="0 0 451.838 451.838" style="enable-background:new 0 0 451.838 451.838;"
	 xml:space="preserve">
<g>
	<path d="M9.562,348.567l47.014,9.64v-92.364l68.133,10.509v94.134l54.588,12.354l239.855-29.491l1.475-128.51l31.211-1.32
		l-9.639-14.2L347.125,68.998L94.898,70.586l0.287,0.669h-0.354L0,224.255h9.562V348.567L9.562,348.567z M420.74,215.266
		l-249.707,10.586L109.375,80.253l233.729-0.623l91.195,135.062L420.74,215.266z M344.25,295.974l-95.625,8.77v-56.581l95.625-5.575
		V295.974z"/>
	<path d="M180.367,215.505l230.821-9.125l-36.053-53.911l-219.104,5.001L180.367,215.505z M201.147,180.612l-24.671,0.889
		l-6.197-14.784l24.298-0.564L201.147,180.612z M186.621,205.675l-6.187-14.755l24.996-0.899l6.636,14.592L186.621,205.675z
		 M222.375,204.183l-6.607-14.525l25.713-0.928l6.064,14.401L222.375,204.183z M257.738,202.701l-6.035-14.344l28.439-1.023
		l6.445,14.162L257.738,202.701z M296.887,201.066l-6.416-14.105l25.502-0.918l6.35,13.961L296.887,201.066z M332.631,199.574
		l-6.32-13.904l24.174-0.87l6.262,13.77L332.631,199.574z M367.057,198.13l-6.236-13.713l21.432-0.775l8.922,13.474L367.057,198.13z
		 M368.012,162.156l8.043,12.144l-19.518,0.708l-5.66-12.46L368.012,162.156z M340.482,162.797l5.729,12.594l-24.176,0.87
		l-5.861-12.9L340.482,162.797z M305.77,163.591l5.93,13.034l-25.504,0.918l-6.07-13.359L305.77,163.591z M269.719,164.422
		l6.139,13.493l-28.123,1.014l-5.832-13.866L269.719,164.422z M231.621,165.302l5.893,14l-26.03,0.937l-6.512-14.325
		L231.621,165.302z"/>
	<path d="M127.286,90.38l24.375,58.13l40.038-0.889l0.02,0.048l0.104-0.048l178.615-3.741l-35.072-53.5H127.286z M289.562,99.942
		l6.1,12.632l-30.445,0.421l-5.939-13.053H289.562z M248.768,99.942l6.006,13.206l-28,0.392l-5.717-13.598H248.768z M210.68,99.942
		l5.775,13.741l-29.51,0.411l-6.426-14.152H210.68z M170.021,99.942l6.503,14.296l-28.688,0.402l-6.178-14.698H170.021z
		 M157.962,138.804l-6.149-14.659l29.022-0.402l6.55,14.411L157.962,138.804z M197.79,137.925l-6.512-14.334l29.186-0.402
		l5.937,14.105L197.79,137.925z M236.672,137.064l-5.9-14.019l28.324-0.392l6.262,13.78L236.672,137.064z M275.764,136.204
		l-6.227-13.693l30.717-0.43l6.482,13.435L275.764,136.204z M317.244,135.285l-6.443-13.349l32.502-0.449l8.043,13.053
		L317.244,135.285z M306.211,112.431l-6.035-12.489h29.846l7.43,12.058L306.211,112.431z"/>
</g>
<g>
</g>
<g>
</g>
<g>
</g>
<g>
</g>
<g>
</g>
<g>
</g>
<g>
</g>
<g>
</g>
<g>
</g>
<g>
</g>
<g>
</g>
<g>
</g>
<g>
</g>
<g>
</g>
<g>
</g>
</svg>
